<svg width="120" height="120" viewBox="0 0 120 120" fill="none" xmlns="http://www.w3.org/2000/svg">
<mask id="mask0_3_605" style="mask-type:luminance" maskUnits="userSpaceOnUse" x="0" y="0" width="120" height="120">
<path d="M0 0H120V120H0V0Z" fill="white"/>
</mask>
<g mask="url(#mask0_3_605)">
<mask id="mask1_3_605" style="mask-type:luminance" maskUnits="userSpaceOnUse" x="0" y="0" width="120" height="120">
<path d="M60 0C26.8623 0 0 26.8623 0 60C0 93.1365 26.8623 120 60 120C93.1377 120 120 93.1365 120 60C120 26.8623 93.1377 0 60 0Z" fill="white"/>
</mask>
<g mask="url(#mask1_3_605)">
<path d="M0 0H120V120H0V0Z" fill="#1674E7"/>
</g>
</g>
<path d="M59.9964 89.4849C58.4869 89.4849 57.2595 90.7111 57.2595 92.2195C57.2595 93.7278 58.4869 94.9541 59.9964 94.9541C61.5048 94.9541 62.7334 93.7278 62.7334 92.2195C62.7334 90.7111 61.5048 89.4849 59.9964 89.4849Z" fill="white"/>
<mask id="mask2_3_605" style="mask-type:luminance" maskUnits="userSpaceOnUse" x="40" y="20" width="40" height="80">
<path d="M40.3947 20.8973H79.5977V99.0672H40.3947V20.8973Z" fill="white"/>
</mask>
<g mask="url(#mask2_3_605)">
<path d="M77.2811 84.7048C77.2811 85.0671 76.9836 85.3657 76.6189 85.3657H43.3727C43.0104 85.3657 42.7118 85.0671 42.7118 84.7048V35.2691C42.7118 34.9056 43.0104 34.6082 43.3727 34.6082H76.6189C76.9836 34.6082 77.2811 34.9056 77.2811 35.2691V84.7048ZM59.9964 96.4246C57.6772 96.4246 55.7888 94.5374 55.7888 92.2194C55.7888 89.9002 57.6772 88.0142 59.9964 88.0142C62.3168 88.0142 64.204 89.9002 64.204 92.2194C64.204 94.5374 62.3168 96.4246 59.9964 96.4246ZM55.3651 26.4114C55.3651 26.0467 55.6637 25.7493 56.0261 25.7493H63.9656C64.3303 25.7493 64.6277 26.0467 64.6277 26.4114V27.2931C64.6277 27.6566 64.3303 27.954 63.9656 27.954H56.0261C55.6637 27.954 55.3651 27.6566 55.3651 27.2931V26.4114ZM73.6424 20.9681H46.3504C43.0753 20.9681 40.3961 23.6473 40.3961 26.9201V93.0526C40.3961 96.3266 43.0753 99.0046 46.3504 99.0046H73.6424C76.9187 99.0046 79.5967 96.3266 79.5967 93.0526V26.9201C79.5967 23.6473 76.9187 20.9681 73.6424 20.9681Z" fill="white"/>
</g>
</svg>
