<svg width="120" height="120" viewBox="0 0 120 120" fill="none" xmlns="http://www.w3.org/2000/svg">
<mask id="mask0_133_549" style="mask-type:luminance" maskUnits="userSpaceOnUse" x="0" y="0" width="120" height="120">
<path d="M0 0H120V120H0V0Z" fill="white"/>
</mask>
<g mask="url(#mask0_133_549)">
<mask id="mask1_133_549" style="mask-type:luminance" maskUnits="userSpaceOnUse" x="0" y="0" width="120" height="120">
<path d="M60 0C26.8623 0 0 26.8623 0 60C0 93.1365 26.8623 120 60 120C93.1377 120 120 93.1365 120 60C120 26.8623 93.1377 0 60 0Z" fill="white"/>
</mask>
<g mask="url(#mask1_133_549)">
<path d="M0 0H120V120H0V0Z" fill="#1674E7"/>
</g>
</g>
<path d="M59.9965 89.4848C58.487 89.4848 57.2595 90.7111 57.2595 92.2194C57.2595 93.7278 58.487 94.9541 59.9965 94.9541C61.5049 94.9541 62.7335 93.7278 62.7335 92.2194C62.7335 90.7111 61.5049 89.4848 59.9965 89.4848Z" fill="white"/>
<mask id="mask2_133_549" style="mask-type:luminance" maskUnits="userSpaceOnUse" x="40" y="20" width="40" height="80">
<path d="M40.3948 20.8974H79.5977V99.0672H40.3948V20.8974Z" fill="white"/>
</mask>
<g mask="url(#mask2_133_549)">
<path d="M77.2812 84.7048C77.2812 85.0672 76.9838 85.3658 76.6191 85.3658H43.3728C43.0105 85.3658 42.7119 85.0672 42.7119 84.7048V35.2692C42.7119 34.9057 43.0105 34.6082 43.3728 34.6082H76.6191C76.9838 34.6082 77.2812 34.9057 77.2812 35.2692V84.7048ZM59.9965 96.4246C57.6774 96.4246 55.789 94.5374 55.789 92.2194C55.789 89.9003 57.6774 88.0142 59.9965 88.0142C62.3169 88.0142 64.2041 89.9003 64.2041 92.2194C64.2041 94.5374 62.3169 96.4246 59.9965 96.4246ZM55.3653 26.4115C55.3653 26.0468 55.6639 25.7493 56.0262 25.7493H63.9657C64.3304 25.7493 64.6278 26.0468 64.6278 26.4115V27.2931C64.6278 27.6566 64.3304 27.954 63.9657 27.954H56.0262C55.6639 27.954 55.3653 27.6566 55.3653 27.2931V26.4115ZM73.6425 20.9682H46.3506C43.0754 20.9682 40.3962 23.6473 40.3962 26.9201V93.0527C40.3962 96.3267 43.0754 99.0046 46.3506 99.0046H73.6425C76.9189 99.0046 79.5968 96.3267 79.5968 93.0527V26.9201C79.5968 23.6473 76.9189 20.9682 73.6425 20.9682Z" fill="white"/>
</g>
<path d="M62.0389 61.6277L62.8302 57.9279H58.6385L57.8472 61.6277H62.0389ZM60.7344 67.7228L61.5898 63.7663H57.3981L56.5427 67.7228H54.2116L55.067 63.7663H51.7522V61.6277H55.5162L56.3074 57.9279H53.014V55.7893H56.7566L57.5906 51.897H59.9217L59.0876 55.7893H63.2793L64.1134 51.897H66.4445L65.6104 55.7893H68.4548V57.9279H65.1613L64.37 61.6277H67.193V63.7663H63.9209L63.0655 67.7228H60.7344Z" fill="white"/>
</svg>
