<svg width="120" height="120" viewBox="0 0 120 120" fill="none" xmlns="http://www.w3.org/2000/svg">
<mask id="mask0_3_410" style="mask-type:luminance" maskUnits="userSpaceOnUse" x="0" y="0" width="120" height="120">
<path d="M0 0H119.999V120H0V0Z" fill="white"/>
</mask>
<g mask="url(#mask0_3_410)">
<mask id="mask1_3_410" style="mask-type:luminance" maskUnits="userSpaceOnUse" x="0" y="0" width="120" height="120">
<path d="M59.9994 0C26.8621 0 0 26.8632 0 60.0006C0 93.1368 26.8621 120 59.9994 120C93.1368 120 119.999 93.1368 119.999 60.0006C119.999 26.8632 93.1368 0 59.9994 0Z" fill="white"/>
</mask>
<g mask="url(#mask1_3_410)">
<path d="M0 0H119.999V120H0V0Z" fill="#1674E7"/>
</g>
</g>
<mask id="mask2_3_410" style="mask-type:luminance" maskUnits="userSpaceOnUse" x="17" y="53" width="82" height="27">
<path d="M17.0189 53.9921H98.3711V79.6468H17.0189V53.9921Z" fill="white"/>
</mask>
<g mask="url(#mask2_3_410)">
<path d="M96.6741 79.4509H29.6394C29.2251 79.4509 28.8132 79.4308 28.4013 79.3907C27.9894 79.3494 27.5811 79.2892 27.1751 79.2077C26.7691 79.1275 26.369 79.026 25.9724 78.9056C25.577 78.7852 25.1875 78.646 24.8052 78.4866C24.4239 78.3285 24.0498 78.1514 23.6851 77.9555C23.3204 77.7596 22.9664 77.546 22.6217 77.3158C22.2783 77.0857 21.9466 76.839 21.6268 76.5758C21.3069 76.3115 21.0013 76.0341 20.7086 75.7402C20.4159 75.4463 20.1385 75.1395 19.8765 74.8185C19.6133 74.4986 19.3678 74.1646 19.1377 73.82C18.9075 73.4754 18.6951 73.1189 18.5004 72.7531C18.3056 72.3872 18.1286 72.0131 17.9704 71.6295C17.8123 71.2459 17.673 70.8552 17.5526 70.4587C17.4334 70.061 17.3319 69.6597 17.2517 69.2525C17.1714 68.8453 17.11 68.4358 17.0699 68.0227C17.0298 67.6096 17.0085 67.1954 17.0085 66.7799C17.0085 66.3656 17.0298 65.9514 17.0699 65.5383C17.11 65.1252 17.1714 64.7157 17.2517 64.3085C17.3319 63.9013 17.4334 63.4989 17.5526 63.1023C17.673 62.7046 17.8123 62.3151 17.9704 61.9315C18.1286 61.5479 18.3056 61.1738 18.5004 60.8068C18.6951 60.4409 18.9075 60.0856 19.1377 59.741C19.3678 59.3952 19.6133 59.0624 19.8765 58.7414C20.1385 58.4215 20.4159 58.1135 20.7086 57.8208C21.0013 57.5269 21.3069 57.2484 21.6268 56.9852C21.9466 56.722 22.2783 56.4753 22.6217 56.2452C22.9664 56.0138 23.3204 55.8014 23.6851 55.6055C24.0498 55.4096 24.4239 55.2325 24.8052 55.0744C25.1875 54.915 25.577 54.7758 25.9724 54.6554C26.369 54.535 26.7691 54.4335 27.1751 54.3533C27.5811 54.2718 27.9894 54.2104 28.4013 54.1703C28.8132 54.1302 29.2251 54.1089 29.6394 54.1089H71.6285C71.7241 54.1089 71.8185 54.1184 71.9129 54.1373C72.0061 54.1562 72.0982 54.1833 72.1855 54.2211C72.274 54.2577 72.3578 54.3025 72.4381 54.3556C72.5172 54.4087 72.5915 54.4701 72.6588 54.5374C72.7261 54.6058 72.7874 54.679 72.8406 54.7593C72.8937 54.8383 72.9385 54.9233 72.9751 55.0118C73.0117 55.1003 73.0388 55.1924 73.0577 55.2856C73.0766 55.3801 73.086 55.4757 73.086 55.5713C73.086 55.6669 73.0766 55.7625 73.0577 55.8569C73.0388 55.9513 73.0117 56.0422 72.9751 56.1307C72.9385 56.2192 72.8937 56.3042 72.8406 56.3833C72.7874 56.4635 72.7261 56.5379 72.6588 56.6051C72.5915 56.6736 72.5172 56.7338 72.4381 56.7869C72.3578 56.84 72.274 56.8849 72.1855 56.9226C72.0982 56.9592 72.0061 56.9864 71.9129 57.0052C71.8185 57.0241 71.7241 57.0336 71.6285 57.0336H29.6193C29.3018 57.0336 28.9843 57.0489 28.6669 57.0808C28.3506 57.1115 28.0366 57.1587 27.7239 57.2212C27.4123 57.2826 27.1042 57.3605 26.7997 57.4525C26.4952 57.5458 26.1955 57.6532 25.9016 57.7759C25.6077 57.8975 25.3209 58.0344 25.04 58.1843C24.7591 58.3354 24.4865 58.4982 24.2221 58.6764C23.9577 58.8535 23.7016 59.0435 23.4561 59.2453C23.2107 59.4483 22.9746 59.6619 22.7492 59.8885C22.5249 60.114 22.3113 60.35 22.1095 60.5967C21.9077 60.8433 21.7188 61.0995 21.5418 61.365C21.3648 61.6306 21.2019 61.9044 21.0508 62.1853C20.9009 62.4673 20.7652 62.7553 20.6437 63.0504C20.5221 63.3454 20.4147 63.6452 20.3226 63.9509C20.2306 64.2566 20.1527 64.5658 20.0913 64.8786C20.0288 65.1925 19.9827 65.5076 19.9509 65.8251C19.9202 66.1426 19.9037 66.4612 19.9037 66.7799C19.9037 67.0998 19.9202 67.4184 19.9509 67.7359C19.9827 68.0534 20.0288 68.3685 20.0913 68.6824C20.1527 68.9952 20.2306 69.3044 20.3226 69.6101C20.4147 69.9158 20.5221 70.2156 20.6437 70.5106C20.7652 70.8057 20.9009 71.0937 21.0508 71.3745C21.2019 71.6566 21.3648 71.9304 21.5418 72.196C21.7188 72.4604 21.9077 72.7165 22.1095 72.9643C22.3113 73.211 22.5249 73.447 22.7492 73.6725C22.9746 73.8979 23.2107 74.1127 23.4561 74.3145C23.7016 74.5175 23.9577 74.7075 24.2221 74.8846C24.4865 75.0616 24.7591 75.2256 25.04 75.3767C25.3209 75.5266 25.6077 75.6635 25.9016 75.7851C26.1955 75.9078 26.4952 76.0152 26.7997 76.1073C27.1042 76.2005 27.4123 76.2772 27.7239 76.3398C28.0366 76.4023 28.3506 76.4495 28.6669 76.4802C28.9843 76.5121 29.3018 76.5274 29.6193 76.5274H96.6553C96.7509 76.5274 96.8453 76.5369 96.9397 76.5558C97.0329 76.5746 97.1238 76.6018 97.2123 76.6384C97.3008 76.675 97.3846 76.721 97.4649 76.7741C97.544 76.8272 97.6171 76.8874 97.6856 76.9559C97.7529 77.0231 97.8131 77.0975 97.8662 77.1766C97.9193 77.2568 97.9641 77.3406 98.0007 77.4303C98.0373 77.5188 98.0656 77.6097 98.0845 77.7041C98.1034 77.7985 98.1117 77.893 98.1117 77.9897C98.1117 78.0853 98.1034 78.1809 98.0845 78.2742C98.0656 78.3686 98.0373 78.4607 98.0007 78.5492C97.9641 78.6377 97.9193 78.7215 97.8662 78.8017C97.8131 78.882 97.7529 78.9552 97.6856 79.0236C97.6171 79.0909 97.544 79.1523 97.4649 79.2054C97.3846 79.2585 97.3008 79.3033 97.2123 79.3399C97.1238 79.3765 97.0329 79.4048 96.9397 79.4237C96.8453 79.4426 96.7509 79.4509 96.6553 79.4509H96.6741Z" fill="white"/>
</g>
<path d="M31.6691 68.194C31.5735 68.194 31.4791 68.1845 31.3846 68.1656C31.2914 68.1468 31.1993 68.1196 31.112 68.083C31.0235 68.0453 30.9385 68.0004 30.8594 67.9473C30.7804 67.8942 30.706 67.834 30.6387 67.7655C30.5715 67.6983 30.5101 67.6239 30.457 67.5437C30.4039 67.4646 30.359 67.3796 30.3224 67.2911C30.2858 67.2026 30.2587 67.1117 30.2398 67.0173C30.2209 66.9229 30.2115 66.8273 30.2115 66.7317V61.6437C30.2115 61.5481 30.2209 61.4525 30.2398 61.3581C30.2587 61.2648 30.2858 61.1728 30.3224 61.0843C30.359 60.9957 30.4039 60.9119 30.457 60.8317C30.5101 60.7514 30.5715 60.6783 30.6387 60.6098C30.706 60.5425 30.7804 60.4812 30.8594 60.428C30.9385 60.3749 31.0235 60.3301 31.112 60.2935C31.1993 60.2569 31.2914 60.2286 31.3846 60.2097C31.4791 60.1908 31.5735 60.1814 31.6691 60.1814C31.7647 60.1814 31.8591 60.1908 31.9535 60.2097C32.0467 60.2286 32.1388 60.2569 32.2273 60.2935C32.3147 60.3301 32.3996 60.3749 32.4787 60.428C32.5578 60.4812 32.6321 60.5425 32.6994 60.6098C32.7667 60.6783 32.8281 60.7514 32.8812 60.8317C32.9343 60.9119 32.9791 60.9957 33.0157 61.0843C33.0523 61.1728 33.0794 61.2648 33.0983 61.3581C33.1172 61.4525 33.1267 61.5481 33.1267 61.6437V66.7317C33.1267 66.8273 33.1172 66.9229 33.0983 67.0173C33.0794 67.1117 33.0523 67.2026 33.0157 67.2911C32.9791 67.3796 32.9343 67.4646 32.8812 67.5437C32.8281 67.6239 32.7667 67.6983 32.6994 67.7655C32.6321 67.834 32.5578 67.8942 32.4787 67.9473C32.3996 68.0004 32.3147 68.0453 32.2273 68.083C32.1388 68.1196 32.0467 68.1468 31.9535 68.1656C31.8591 68.1845 31.7647 68.194 31.6691 68.194Z" fill="white"/>
<path d="M31.6691 68.1938C31.5252 68.1938 31.3835 68.1737 31.2466 68.1312C31.1085 68.0899 30.9799 68.0285 30.8595 67.9471C30.7403 67.8668 30.6353 67.7701 30.5444 67.6568C30.4547 67.5446 30.3815 67.4219 30.3284 67.2873C30.2883 67.1976 30.2588 67.1044 30.2375 67.0088C30.2163 66.9132 30.2045 66.8164 30.2033 66.7185C30.2021 66.6193 30.2104 66.5226 30.2281 66.4258C30.2458 66.3302 30.2729 66.2358 30.3095 66.1449C30.3461 66.054 30.3921 65.9678 30.4452 65.8852C30.4995 65.8038 30.5609 65.7283 30.6305 65.6586C30.7002 65.5902 30.7757 65.5276 30.8571 65.4745C30.9386 65.4202 31.0247 65.3742 31.1156 65.3376L35.7988 63.3879C35.8873 63.3513 35.9782 63.3241 36.0726 63.3052C36.167 63.2864 36.2614 63.2769 36.357 63.2769C36.4538 63.2769 36.5482 63.2864 36.6426 63.3052C36.7371 63.3241 36.8279 63.3525 36.9165 63.389C37.005 63.4256 37.0899 63.4705 37.169 63.5248C37.2493 63.5779 37.3224 63.6392 37.3909 63.7065C37.4582 63.775 37.5195 63.8493 37.5727 63.9296C37.6258 64.0098 37.6706 64.0936 37.7072 64.1822C37.7438 64.2719 37.7721 64.3639 37.7898 64.4583C37.8087 64.5527 37.8181 64.6472 37.8181 64.7439C37.8181 64.8407 37.8087 64.9351 37.7898 65.0296C37.7709 65.124 37.7438 65.216 37.7072 65.3046C37.6694 65.3943 37.6246 65.478 37.5715 65.5583C37.5184 65.6386 37.4582 65.7129 37.3897 65.7802C37.3213 65.8486 37.2481 65.9088 37.1678 65.9631C37.0888 66.0162 37.0038 66.0611 36.9153 66.0977L32.2227 68.0474C32.048 68.1312 31.8627 68.1796 31.6691 68.1938Z" fill="white"/>
<path d="M34.9242 72.0922C34.707 72.0934 34.5017 72.0485 34.3057 71.9553C34.1098 71.8633 33.9434 71.7334 33.8065 71.5658L30.5514 67.6675C30.4853 67.5944 30.4251 67.5165 30.3744 67.4315C30.3236 67.3465 30.2812 67.2568 30.2481 67.1636C30.2151 67.0703 30.1915 66.9747 30.1785 66.8768C30.1643 66.7776 30.1608 66.6797 30.1667 66.5805C30.1738 66.4814 30.1891 66.3846 30.2162 66.289C30.2422 66.1934 30.2776 66.1014 30.3213 66.0128C30.3661 65.9243 30.4192 65.8405 30.4818 65.7638C30.5432 65.6859 30.6116 65.6151 30.6872 65.5514C30.7639 65.4888 30.8453 65.4334 30.9315 65.3861C31.0188 65.3389 31.1097 65.3012 31.2041 65.2728C31.2997 65.2445 31.3953 65.2268 31.4944 65.2174C31.5924 65.2091 31.6915 65.2103 31.7895 65.2221C31.8874 65.2339 31.983 65.2551 32.0775 65.2858C32.1707 65.3165 32.2604 65.3566 32.3466 65.4062C32.4327 65.4558 32.5118 65.5124 32.5861 65.5785C32.6605 65.6446 32.7266 65.7166 32.7868 65.7957L36.0407 69.6952C36.1032 69.7683 36.1563 69.8474 36.2024 69.9312C36.2496 70.015 36.2862 70.1035 36.3157 70.1944C36.344 70.2865 36.3641 70.3797 36.3735 70.4753C36.3841 70.5709 36.3853 70.6665 36.377 70.7621C36.3676 70.8577 36.3499 70.9509 36.3228 71.043C36.2956 71.135 36.2602 71.2236 36.2154 71.3085C36.1705 71.3935 36.1186 71.4738 36.0572 71.5481C35.997 71.6225 35.9297 71.6898 35.8566 71.7511C35.5863 71.9777 35.2759 72.091 34.9242 72.0922Z" fill="white"/>
<path d="M28.9391 72.4829C28.8765 72.4805 28.814 72.4746 28.7514 72.464C28.6889 72.4534 28.6275 72.4392 28.5673 72.4215C28.5071 72.4038 28.4481 72.3814 28.3903 72.3554C28.3336 72.3306 28.2782 72.3011 28.2239 72.2681C28.1696 72.235 28.1188 72.1984 28.0693 72.1595C28.0209 72.1194 27.9737 72.0769 27.93 72.032C27.8863 71.986 27.8462 71.9376 27.8084 71.8869C27.7707 71.8361 27.7376 71.783 27.7069 71.7287C27.6762 71.6732 27.6491 71.6166 27.6255 71.5576C27.6019 71.4986 27.583 71.4384 27.5665 71.377C27.5511 71.3168 27.5393 71.2543 27.5322 71.1917C27.524 71.1292 27.5204 71.0654 27.5204 71.0029C27.5216 70.9391 27.5252 70.8766 27.5334 70.814C27.5429 70.7515 27.5547 70.6901 27.5712 70.6287C27.5877 70.5674 27.6078 70.5084 27.6314 70.4493C27.6562 70.3915 27.6833 70.3349 27.7152 70.2794L30.425 65.942C30.4769 65.8618 30.5359 65.7863 30.602 65.7166C30.6693 65.647 30.7413 65.5856 30.8204 65.5301C30.8983 65.4747 30.9821 65.4286 31.0694 65.3897C31.1579 65.3507 31.2488 65.3212 31.342 65.3012C31.4353 65.2799 31.5309 65.2693 31.6265 65.267C31.7221 65.2646 31.8177 65.2729 31.9109 65.2894C32.0053 65.3059 32.0974 65.333 32.1871 65.3673C32.2768 65.4027 32.3618 65.4463 32.442 65.4983C32.5223 65.5502 32.5978 65.6092 32.6663 65.6753C32.7359 65.7426 32.7973 65.8158 32.8527 65.8937C32.907 65.9727 32.9542 66.0565 32.992 66.145C33.0309 66.2324 33.0605 66.3233 33.0805 66.4177C33.1006 66.5121 33.1124 66.6065 33.1136 66.7033C33.1159 66.7989 33.1088 66.8945 33.0911 66.9889C33.0746 67.0833 33.0486 67.1754 33.0132 67.2651C32.979 67.3548 32.9353 67.4398 32.8834 67.5212L30.1535 71.8102C30.019 72.0167 29.8443 72.1796 29.6295 72.2976C29.4147 72.4168 29.1846 72.4782 28.9391 72.4829Z" fill="white"/>
<path d="M31.6691 68.1938C31.5428 68.208 31.4165 68.208 31.2902 68.1938L26.4324 66.8779C26.3403 66.8531 26.2506 66.8188 26.1645 66.7764C26.0795 66.7339 25.9981 66.6831 25.9225 66.6253C25.847 66.5663 25.7774 66.5002 25.7136 66.4282C25.6511 66.3562 25.5956 66.2783 25.5472 66.1945C25.5 66.1119 25.4599 66.0245 25.4292 65.9337C25.3985 65.8428 25.3773 65.7496 25.3655 65.654C25.3525 65.5584 25.3501 65.4628 25.356 65.3672C25.3619 65.2716 25.3785 65.1771 25.4032 65.0839C25.428 64.9918 25.4611 64.9021 25.5036 64.816C25.546 64.7298 25.5968 64.6484 25.6546 64.5729C25.7136 64.4961 25.7786 64.4265 25.8505 64.3628C25.9225 64.3002 26.0004 64.2448 26.0831 64.1964C26.1668 64.148 26.253 64.109 26.3439 64.0783C26.4348 64.0477 26.528 64.0252 26.6224 64.0134C26.718 64.0005 26.8124 63.9981 26.908 64.004C27.0036 64.0111 27.098 64.0264 27.1901 64.0512L32.0479 65.3672C32.1435 65.3801 32.2368 65.4014 32.3288 65.4321C32.4197 65.4639 32.507 65.5029 32.5908 65.5513C32.6746 65.5997 32.7525 65.6551 32.8257 65.7189C32.8977 65.7826 32.9638 65.8534 33.0228 65.9301C33.0806 66.0068 33.1314 66.0883 33.1751 66.1756C33.2175 66.2618 33.2518 66.3515 33.2766 66.4459C33.3013 66.5391 33.3167 66.6335 33.3238 66.7303C33.3297 66.8271 33.3273 66.9227 33.3143 67.0195C33.3025 67.1151 33.2801 67.2083 33.2494 67.3004C33.2187 67.3924 33.1798 67.4798 33.1314 67.5636C33.083 67.6474 33.0275 67.7264 32.9638 67.7984C32.9012 67.8716 32.8304 67.9377 32.7549 67.9967C32.6782 68.0557 32.5967 68.1065 32.5106 68.1501C32.4233 68.1926 32.3336 68.2269 32.2415 68.2516C32.1483 68.2776 32.0527 68.293 31.9571 68.3C31.8603 68.3059 31.7647 68.3036 31.6691 68.2906V68.1938Z" fill="white"/>
<path d="M49.3124 68.194C49.2168 68.194 49.1212 68.1845 49.0279 68.1656C48.9335 68.1468 48.8427 68.1196 48.7541 68.083C48.6656 68.0453 48.5818 68.0004 48.5027 67.9473C48.4225 67.8942 48.3493 67.834 48.282 67.7655C48.2136 67.6983 48.1534 67.6239 48.1003 67.5437C48.0472 67.4646 48.0023 67.3796 47.9657 67.2911C47.9292 67.2026 47.902 67.1117 47.8831 67.0173C47.8642 66.9229 47.8548 66.8273 47.8548 66.7317V61.6437C47.8548 61.5481 47.8642 61.4525 47.8831 61.3581C47.902 61.2648 47.9292 61.1728 47.9657 61.0843C48.0023 60.9957 48.0472 60.9119 48.1003 60.8317C48.1534 60.7514 48.2136 60.6783 48.282 60.6098C48.3493 60.5425 48.4225 60.4812 48.5027 60.428C48.5818 60.3749 48.6656 60.3301 48.7541 60.2935C48.8427 60.2569 48.9335 60.2286 49.0279 60.2097C49.1212 60.1908 49.2168 60.1814 49.3124 60.1814C49.408 60.1814 49.5024 60.1908 49.5968 60.2097C49.6901 60.2286 49.7809 60.2569 49.8695 60.2935C49.958 60.3301 50.0418 60.3749 50.122 60.428C50.2011 60.4812 50.2755 60.5425 50.3427 60.6098C50.41 60.6783 50.4702 60.7514 50.5233 60.8317C50.5764 60.9119 50.6224 60.9957 50.659 61.0843C50.6956 61.1728 50.7228 61.2648 50.7416 61.3581C50.7605 61.4525 50.77 61.5481 50.77 61.6437V66.7317C50.77 66.8273 50.7605 66.9229 50.7416 67.0173C50.7228 67.1117 50.6956 67.2026 50.659 67.2911C50.6224 67.3796 50.5764 67.4646 50.5233 67.5437C50.4702 67.6239 50.41 67.6983 50.3427 67.7655C50.2755 67.834 50.2011 67.8942 50.122 67.9473C50.0418 68.0004 49.958 68.0453 49.8695 68.083C49.7809 68.1196 49.6901 68.1468 49.5968 68.1656C49.5024 68.1845 49.408 68.194 49.3124 68.194Z" fill="white"/>
<path d="M49.3124 68.1937C49.1483 68.1878 48.9901 68.1559 48.8367 68.0969C48.6845 68.0367 48.5452 67.9541 48.4201 67.8479C48.295 67.7416 48.1911 67.6189 48.1073 67.4773C48.0235 67.3356 47.9657 67.1846 47.9338 67.0229C47.9008 66.8624 47.8949 66.6995 47.9173 66.5366C47.9397 66.3738 47.987 66.2191 48.0613 66.0728C48.1357 65.9253 48.2313 65.7954 48.3493 65.681C48.4661 65.5665 48.5995 65.4756 48.7482 65.406L53.4408 63.4562C53.5293 63.4196 53.6214 63.3925 53.7158 63.3736C53.809 63.3547 53.9046 63.3465 54.0002 63.3465C54.0958 63.3465 54.1914 63.3559 54.2847 63.3748C54.3791 63.3949 54.47 63.422 54.5585 63.4598C54.647 63.4964 54.732 63.5424 54.811 63.5955C54.8901 63.6498 54.9645 63.71 55.0318 63.7784C55.099 63.8469 55.1592 63.9212 55.2123 64.0015C55.2654 64.0818 55.3103 64.1655 55.3469 64.2552C55.3835 64.3438 55.4106 64.4358 55.4283 64.5302C55.4472 64.6247 55.4566 64.7203 55.4555 64.8159C55.4555 64.9126 55.446 65.0082 55.4271 65.1027C55.4071 65.1959 55.3799 65.2879 55.3422 65.3765C55.3056 65.465 55.2595 65.55 55.2064 65.629C55.1533 65.7093 55.0919 65.7825 55.0235 65.8509C54.9562 65.9182 54.8819 65.9784 54.8016 66.0315C54.7214 66.0846 54.6376 66.1295 54.549 66.166L49.8659 68.1158C49.6853 68.1748 49.5012 68.2008 49.3124 68.1937Z" fill="white"/>
<path d="M52.5663 72.0922C52.3503 72.0946 52.1438 72.0485 51.949 71.9565C51.7531 71.8644 51.5867 71.7346 51.4498 71.5658L48.1947 67.6675C48.1274 67.5944 48.0684 67.5165 48.0177 67.4315C47.9657 67.3465 47.9244 67.2568 47.8914 67.1636C47.8583 67.0703 47.8347 66.9747 47.8206 66.8768C47.8076 66.7776 47.8041 66.6797 47.81 66.5805C47.8159 66.4814 47.8324 66.3846 47.8583 66.289C47.8843 66.1934 47.9197 66.1014 47.9646 66.0128C48.0094 65.9243 48.0625 65.8405 48.1239 65.7638C48.1853 65.6859 48.2549 65.6151 48.3304 65.5514C48.406 65.4888 48.4874 65.4334 48.5747 65.3861C48.6621 65.3389 48.753 65.3012 48.8474 65.2728C48.9418 65.2445 49.0386 65.2268 49.1377 65.2174C49.2357 65.2091 49.3336 65.2103 49.4316 65.2221C49.5307 65.2339 49.6263 65.2551 49.7208 65.2858C49.814 65.3165 49.9037 65.3566 49.9898 65.4062C50.0748 65.4558 50.1551 65.5124 50.2294 65.5785C50.3038 65.6446 50.3699 65.7166 50.4289 65.7957L53.684 69.6952C53.7725 69.8014 53.8445 69.9182 53.8999 70.0457C53.9554 70.1732 53.992 70.3053 54.0097 70.4434C54.0274 70.5803 54.0251 70.7184 54.0038 70.8553C53.9826 70.9922 53.9424 71.1244 53.8846 71.2495C53.8256 71.3758 53.7512 71.4903 53.6592 71.5953C53.5683 71.6992 53.4644 71.7889 53.3476 71.8633C53.2308 71.9376 53.1068 71.9943 52.9735 72.0332C52.8401 72.0722 52.7056 72.0922 52.5663 72.0922Z" fill="white"/>
<path d="M46.5825 72.4826C46.5187 72.4803 46.4562 72.4756 46.3936 72.4661C46.3311 72.4567 46.2697 72.4425 46.2083 72.4248C46.1481 72.4071 46.0879 72.3859 46.0301 72.3599C45.9723 72.3351 45.9168 72.3056 45.8625 72.2726C45.8082 72.2407 45.7563 72.2041 45.7067 72.1652C45.6572 72.125 45.6099 72.0825 45.5663 72.0365C45.5226 71.9917 45.4813 71.9433 45.4435 71.8925C45.4058 71.8406 45.3715 71.7875 45.3409 71.732C45.3102 71.6765 45.283 71.6199 45.2606 71.5609C45.237 71.5019 45.2169 71.4417 45.2016 71.3803C45.1862 71.3189 45.1744 71.2564 45.1674 71.1938C45.1591 71.1301 45.1567 71.0675 45.1567 71.0038C45.1579 70.9401 45.1626 70.8775 45.1709 70.8138C45.1803 70.7512 45.1933 70.6899 45.2098 70.6285C45.2276 70.5671 45.2476 70.5069 45.2724 70.4491C45.2972 70.3901 45.3255 70.3346 45.3574 70.2791L48.0778 65.9902C48.1297 65.9099 48.1888 65.8344 48.2548 65.7648C48.3221 65.6963 48.3941 65.6338 48.4732 65.5783C48.5511 65.524 48.6349 65.4768 48.7222 65.4378C48.8107 65.4001 48.9016 65.3706 48.9948 65.3493C49.0881 65.3293 49.1825 65.3175 49.2793 65.3151C49.3749 65.3139 49.4693 65.321 49.5637 65.3375C49.6581 65.3552 49.7502 65.3812 49.8399 65.4166C49.9284 65.4508 50.0134 65.4945 50.0948 65.5464C50.1751 65.5983 50.2506 65.6574 50.3191 65.7246C50.3887 65.7907 50.4501 65.8639 50.5055 65.943C50.5598 66.022 50.607 66.1047 50.6448 66.1932C50.6838 66.2817 50.7133 66.3726 50.7333 66.4658C50.7534 66.5602 50.7652 66.6558 50.7664 66.7514C50.7687 66.847 50.7617 66.9426 50.744 67.0382C50.7274 67.1326 50.7015 67.2247 50.6661 67.3144C50.6318 67.4041 50.5882 67.4891 50.5362 67.5693L47.8158 71.8488C47.6754 72.0507 47.496 72.2076 47.2776 72.3198C47.0593 72.4319 46.8279 72.4862 46.5825 72.4826Z" fill="white"/>
<path d="M49.3124 68.1939C49.1861 68.208 49.0598 68.208 48.9336 68.1939L44.0757 66.8779C43.9837 66.8531 43.894 66.8201 43.8078 66.7776C43.7228 66.7351 43.6414 66.6844 43.5659 66.6265C43.4891 66.5687 43.4195 66.5026 43.357 66.4306C43.2932 66.3586 43.2378 66.2819 43.1894 66.1981C43.1422 66.1155 43.102 66.0281 43.0713 65.9373C43.0407 65.8464 43.0182 65.7543 43.0064 65.6587C42.9934 65.5631 42.9899 65.4687 42.9958 65.3719C43.0017 65.2763 43.0171 65.1819 43.0418 65.0899C43.0666 64.9966 43.0997 64.9069 43.1422 64.8208C43.1835 64.7346 43.2342 64.6544 43.292 64.5776C43.3499 64.5009 43.4148 64.4313 43.4868 64.3676C43.5588 64.3038 43.6355 64.2484 43.7181 64.2C43.8007 64.1528 43.8881 64.1126 43.9789 64.0819C44.0686 64.0501 44.1619 64.0288 44.2563 64.0159C44.3507 64.0029 44.4463 63.9993 44.5419 64.0052C44.6375 64.0111 44.7307 64.0265 44.824 64.0513L49.6818 65.3672C49.7774 65.379 49.8707 65.4003 49.9615 65.4309C50.0536 65.4616 50.1409 65.5018 50.2247 65.549C50.3085 65.5974 50.3864 65.6528 50.4596 65.7166C50.5328 65.7803 50.5989 65.8499 50.6579 65.9266C50.7169 66.0022 50.7676 66.0848 50.8113 66.171C50.8538 66.2571 50.888 66.348 50.914 66.4412C50.9388 66.5345 50.9553 66.6289 50.9624 66.7257C50.9683 66.8224 50.9659 66.918 50.9541 67.0148C50.9423 67.1104 50.9211 67.2037 50.8904 67.2957C50.8597 67.3878 50.8207 67.4763 50.7724 67.5601C50.7251 67.6439 50.6697 67.7218 50.6059 67.795C50.5422 67.8681 50.4726 67.9342 50.397 67.9944C50.3203 68.0534 50.2389 68.1042 50.1527 68.1478C50.0666 68.1903 49.9769 68.2257 49.8836 68.2505C49.7904 68.2765 49.696 68.293 49.6004 68.2989C49.5036 68.306 49.408 68.3036 49.3124 68.2906V68.1939Z" fill="white"/>
<path d="M66.9543 68.194C66.8587 68.194 66.7643 68.1845 66.6711 68.1656C66.5767 68.1468 66.4858 68.1196 66.3973 68.083C66.3087 68.0453 66.2249 68.0004 66.1447 67.9473C66.0656 67.8942 65.9924 67.834 65.924 67.7655C65.8567 67.6983 65.7965 67.6239 65.7434 67.5437C65.6903 67.4646 65.6455 67.3796 65.6089 67.2911C65.5723 67.2026 65.544 67.1117 65.5251 67.0173C65.5074 66.9229 65.4979 66.8273 65.4979 66.7317V61.6437C65.4979 61.5481 65.5074 61.4525 65.5251 61.3581C65.544 61.2648 65.5723 61.1728 65.6089 61.0843C65.6455 60.9957 65.6903 60.9119 65.7434 60.8317C65.7965 60.7514 65.8567 60.6783 65.924 60.6098C65.9924 60.5425 66.0656 60.4812 66.1447 60.428C66.2249 60.3749 66.3087 60.3301 66.3973 60.2935C66.4858 60.2569 66.5767 60.2286 66.6711 60.2097C66.7643 60.1908 66.8587 60.1814 66.9543 60.1814C67.0511 60.1814 67.1455 60.1908 67.2388 60.2097C67.3332 60.2286 67.4241 60.2569 67.5126 60.2935C67.6011 60.3301 67.6849 60.3749 67.764 60.428C67.8442 60.4812 67.9174 60.5425 67.9859 60.6098C68.0531 60.6783 68.1133 60.7514 68.1664 60.8317C68.2195 60.9119 68.2644 60.9957 68.301 61.0843C68.3376 61.1728 68.3659 61.2648 68.3848 61.3581C68.4025 61.4525 68.4119 61.5481 68.4119 61.6437V66.7317C68.4119 66.8273 68.4025 66.9229 68.3848 67.0173C68.3659 67.1117 68.3376 67.2026 68.301 67.2911C68.2644 67.3796 68.2195 67.4646 68.1664 67.5437C68.1133 67.6239 68.0531 67.6983 67.9859 67.7655C67.9174 67.834 67.8442 67.8942 67.764 67.9473C67.6849 68.0004 67.6011 68.0453 67.5126 68.083C67.4241 68.1196 67.3332 68.1468 67.2388 68.1656C67.1455 68.1845 67.0511 68.194 66.9543 68.194Z" fill="white"/>
<path d="M66.9546 68.1937C66.7905 68.1902 66.6312 68.1595 66.4766 68.1016C66.3231 68.0438 66.1827 67.9624 66.0552 67.8573C65.9289 67.7511 65.8227 67.6284 65.7377 67.4867C65.6528 67.3451 65.5938 67.194 65.5595 67.0323C65.5265 66.8707 65.5194 66.7078 65.5406 66.5437C65.5619 66.3797 65.6091 66.2239 65.6834 66.0764C65.7566 65.9288 65.8534 65.7978 65.9714 65.6833C66.0894 65.5677 66.2228 65.4756 66.3727 65.406L71.0641 63.4562C71.1538 63.4149 71.2459 63.3819 71.3403 63.3583C71.4359 63.3359 71.5327 63.3217 71.6306 63.3182C71.7286 63.3146 71.8266 63.3205 71.9233 63.337C72.0189 63.3536 72.1133 63.3783 72.2054 63.4138C72.2975 63.4492 72.3836 63.4928 72.4674 63.5459C72.55 63.5979 72.6267 63.6592 72.6964 63.7277C72.7672 63.7962 72.8309 63.8705 72.8864 63.9519C72.9419 64.0322 72.9879 64.1184 73.0268 64.2092C73.0646 64.2989 73.0941 64.3933 73.113 64.4889C73.1331 64.5857 73.1425 64.6837 73.1425 64.7816C73.1425 64.8796 73.1319 64.9776 73.113 65.0732C73.0929 65.1699 73.0634 65.2632 73.0257 65.3541C72.9867 65.4449 72.9395 65.5299 72.884 65.6113C72.8274 65.6916 72.7648 65.766 72.694 65.8344C72.6232 65.9029 72.5465 65.9631 72.4639 66.0162C72.3801 66.0681 72.2927 66.1118 72.2019 66.1472L67.5187 68.0957C67.337 68.163 67.1493 68.1949 66.9546 68.1937Z" fill="white"/>
<path d="M70.2579 72.0922C70.042 72.0946 69.8354 72.0485 69.6395 71.9565C69.4448 71.8644 69.2783 71.7346 69.1414 71.5658L65.8864 67.6675C65.8191 67.5944 65.7601 67.5165 65.7093 67.4315C65.6574 67.3465 65.6161 67.2568 65.583 67.1636C65.55 67.0703 65.5264 66.9747 65.5122 66.8768C65.4992 66.7776 65.4957 66.6797 65.5016 66.5805C65.5075 66.4814 65.524 66.3846 65.55 66.289C65.576 66.1934 65.6114 66.1014 65.6562 66.0128C65.7011 65.9243 65.7542 65.8405 65.8155 65.7638C65.8769 65.6859 65.9466 65.6151 66.0221 65.5514C66.0976 65.4888 66.1791 65.4334 66.2664 65.3861C66.3537 65.3389 66.4446 65.3012 66.539 65.2728C66.6334 65.2445 66.7302 65.2268 66.8282 65.2174C66.9273 65.2091 67.0253 65.2103 67.1232 65.2221C67.2224 65.2339 67.318 65.2551 67.4112 65.2858C67.5056 65.3165 67.5953 65.3566 67.6815 65.4062C67.7665 65.4558 67.8467 65.5124 67.9211 65.5785C67.9943 65.6446 68.0615 65.7166 68.1205 65.7957L71.3756 69.6952C71.4641 69.8014 71.5361 69.9182 71.5916 70.0457C71.6471 70.1732 71.6837 70.3053 71.7014 70.4434C71.7191 70.5803 71.7167 70.7184 71.6955 70.8553C71.6742 70.9922 71.6341 71.1244 71.5763 71.2495C71.5172 71.3758 71.4429 71.4903 71.3508 71.5953C71.26 71.6992 71.1561 71.7889 71.0393 71.8633C70.9224 71.9376 70.7973 71.9943 70.6651 72.0332C70.5318 72.0722 70.396 72.0922 70.2579 72.0922Z" fill="white"/>
<path d="M64.2247 72.483C64.1621 72.4806 64.0996 72.4759 64.037 72.4665C63.9745 72.457 63.9119 72.4429 63.8517 72.4251C63.7904 72.4074 63.7314 72.3862 63.6735 72.3602C63.6157 72.3355 63.559 72.3059 63.5047 72.2729C63.4516 72.241 63.3997 72.2044 63.3501 72.1655C63.3006 72.1254 63.2534 72.0829 63.2097 72.0369C63.166 71.992 63.1247 71.9436 63.0869 71.8929C63.0492 71.8409 63.015 71.7878 62.9843 71.7324C62.9536 71.6769 62.9264 71.6202 62.9028 71.5612C62.8792 71.5022 62.8603 71.442 62.845 71.3806C62.8297 71.3193 62.8179 71.2567 62.8096 71.1942C62.8025 71.1304 62.799 71.0679 62.8002 71.0041C62.8013 70.9404 62.8061 70.8779 62.8143 70.8141C62.8238 70.7516 62.8367 70.6902 62.8533 70.6288C62.8698 70.5675 62.891 70.5073 62.9158 70.4494C62.9406 70.3904 62.9689 70.335 63.0008 70.2795L65.7212 65.9905C65.7732 65.9103 65.8322 65.8347 65.8983 65.7651C65.9644 65.6967 66.0375 65.6341 66.1154 65.5798C66.1945 65.5243 66.2783 65.4771 66.3656 65.4394C66.453 65.4004 66.5438 65.3709 66.6383 65.3508C66.7315 65.3296 66.8259 65.319 66.9215 65.3166C67.0171 65.3154 67.1127 65.3225 67.2071 65.339C67.3016 65.3567 67.3936 65.3827 67.4821 65.4169C67.5718 65.4523 67.6568 65.496 67.7371 65.5479C67.8185 65.5999 67.8928 65.6589 67.9613 65.725C68.0309 65.7922 68.0923 65.8642 68.1478 65.9433C68.2021 66.0224 68.2493 66.1062 68.287 66.1935C68.326 66.282 68.3555 66.3729 68.3756 66.4673C68.3968 66.5606 68.4074 66.6562 68.4098 66.7518C68.411 66.8486 68.4039 66.943 68.3874 67.0386C68.3697 67.133 68.3437 67.225 68.3095 67.3147C68.2741 67.4044 68.2304 67.4894 68.1796 67.5697L65.4592 71.8492C65.3188 72.051 65.1405 72.2092 64.921 72.3213C64.7027 72.4334 64.4702 72.4877 64.2247 72.483Z" fill="white"/>
<path d="M66.9545 68.1938C66.8282 68.208 66.7019 68.208 66.5756 68.1938L61.719 66.8779C61.6257 66.8531 61.5372 66.8188 61.4511 66.7764C61.3649 66.7339 61.2846 66.6831 61.2079 66.6253C61.1324 66.5663 61.0628 66.5002 61.0002 66.4282C60.9365 66.3562 60.881 66.2783 60.8338 66.1945C60.7854 66.1119 60.7465 66.0245 60.7158 65.9337C60.6851 65.8428 60.6638 65.7496 60.6509 65.654C60.6391 65.5584 60.6355 65.4628 60.6414 65.3672C60.6485 65.2716 60.6638 65.1771 60.6886 65.0839C60.7134 64.9918 60.7476 64.9021 60.7901 64.816C60.8326 64.7298 60.8822 64.6484 60.9412 64.5729C60.999 64.4961 61.0651 64.4265 61.1371 64.3628C61.2091 64.3002 61.2858 64.2448 61.3696 64.1964C61.4522 64.148 61.5396 64.109 61.6293 64.0783C61.7201 64.0477 61.8134 64.0252 61.9078 64.0134C62.0034 64.0005 62.099 63.9981 62.1946 64.004C62.2902 64.0111 62.3834 64.0264 62.4767 64.0512L67.3345 65.3672C67.4301 65.3801 67.5233 65.4014 67.6142 65.4321C67.7063 65.4639 67.7936 65.5029 67.8762 65.5513C67.96 65.5997 68.0379 65.6563 68.1111 65.7189C68.1831 65.7826 68.2492 65.8534 68.3082 65.9301C68.3672 66.0068 68.418 66.0883 68.4604 66.1756C68.5029 66.2618 68.5372 66.3515 68.5619 66.4459C68.5867 66.5391 68.6033 66.6335 68.6092 66.7303C68.6162 66.8271 68.6127 66.9227 68.6009 67.0195C68.5879 67.1151 68.5667 67.2083 68.536 67.3004C68.5041 67.3924 68.4652 67.4798 68.4168 67.5636C68.3696 67.6474 68.3129 67.7264 68.2504 67.7984C68.1866 67.8716 68.117 67.9377 68.0403 67.9967C67.9636 68.0557 67.8821 68.1065 67.796 68.1501C67.7098 68.1926 67.6201 68.2269 67.5269 68.2516C67.4336 68.2776 67.3392 68.293 67.2424 68.3C67.1468 68.3059 67.0512 68.3036 66.9545 68.2906V68.1938Z" fill="white"/>
<mask id="mask3_3_410" style="mask-type:luminance" maskUnits="userSpaceOnUse" x="78" y="54" width="25" height="26">
<path d="M78.4299 54.5964H102.902V79.6468H78.4299V54.5964Z" fill="white"/>
</mask>
<g mask="url(#mask3_3_410)">
<path d="M95.8973 79.4508H85.5691C85.3378 79.4508 85.1064 79.439 84.8751 79.4166C84.645 79.393 84.416 79.3588 84.1882 79.3128C83.9616 79.2679 83.7362 79.2113 83.5143 79.1428C83.2924 79.0755 83.0753 78.9976 82.8604 78.9079C82.6468 78.8182 82.4367 78.7191 82.2326 78.6093C82.0284 78.4996 81.8301 78.3804 81.6365 78.2506C81.4442 78.1219 81.2577 77.9826 81.0795 77.8351C80.9001 77.6876 80.7278 77.5318 80.5649 77.3677C80.4008 77.2025 80.2451 77.0302 80.0975 76.8508C79.95 76.6714 79.8131 76.4849 79.6833 76.2914C79.5546 76.0978 79.4354 75.8984 79.3257 75.693C79.2171 75.4888 79.1179 75.2787 79.0282 75.0639C78.9397 74.8491 78.8618 74.6296 78.7946 74.4077C78.7273 74.1847 78.6706 73.9592 78.6246 73.7314C78.5797 73.5037 78.5455 73.2735 78.5219 73.0422C78.4995 72.8109 78.4877 72.5784 78.4865 72.3459V61.9846C78.4877 61.7521 78.4995 61.5196 78.5219 61.2883C78.5455 61.0569 78.5797 60.828 78.6246 60.599C78.6706 60.3712 78.7273 60.1458 78.7946 59.9227C78.8618 59.7009 78.9397 59.4825 79.0282 59.2677C79.1179 59.0517 79.2171 58.8428 79.3257 58.6375C79.4354 58.4321 79.5546 58.2327 79.6833 58.0391C79.8131 57.8467 79.95 57.6591 80.0975 57.4797C80.2451 57.3003 80.4008 57.128 80.5649 56.9627C80.7278 56.7987 80.9001 56.6429 81.0795 56.4954C81.2577 56.3478 81.4442 56.2086 81.6365 56.0799C81.8301 55.9501 82.0284 55.8309 82.2326 55.7211C82.4367 55.6114 82.6468 55.5122 82.8604 55.4225C83.0753 55.334 83.2924 55.2549 83.5143 55.1877C83.7362 55.1192 83.9616 55.0626 84.1882 55.0177C84.416 54.9717 84.645 54.9374 84.8751 54.9138C85.1064 54.8914 85.3378 54.8796 85.5691 54.8796H95.8973C96.1286 54.8796 96.3599 54.8914 96.5913 54.9138C96.8214 54.9374 97.0504 54.9717 97.2782 55.0177C97.5048 55.0626 97.7302 55.1192 97.9521 55.1877C98.1739 55.2549 98.3911 55.334 98.6059 55.4225C98.8195 55.5122 99.0296 55.6114 99.2338 55.7211C99.438 55.8309 99.6363 55.9501 99.8298 56.0799C100.022 56.2086 100.209 56.3478 100.387 56.4954C100.566 56.6429 100.739 56.7987 100.901 56.9627C101.066 57.128 101.221 57.3003 101.369 57.4797C101.516 57.6591 101.653 57.8467 101.783 58.0391C101.912 58.2327 102.031 58.4321 102.141 58.6375C102.249 58.8428 102.348 59.0517 102.438 59.2677C102.527 59.4825 102.605 59.7009 102.672 59.9227C102.739 60.1458 102.796 60.3712 102.842 60.599C102.887 60.828 102.921 61.0569 102.944 61.2883C102.967 61.5196 102.979 61.7521 102.98 61.9846V72.3459C102.979 72.5784 102.967 72.8109 102.944 73.0422C102.921 73.2735 102.887 73.5037 102.842 73.7314C102.796 73.9592 102.739 74.1847 102.672 74.4077C102.605 74.6296 102.527 74.8491 102.438 75.0639C102.348 75.2787 102.249 75.4888 102.141 75.693C102.031 75.8984 101.912 76.0978 101.783 76.2914C101.653 76.4849 101.516 76.6714 101.369 76.8508C101.221 77.0302 101.066 77.2025 100.903 77.3677C100.739 77.5318 100.566 77.6876 100.387 77.8351C100.209 77.9826 100.022 78.1219 99.8298 78.2506C99.6363 78.3804 99.438 78.4996 99.2338 78.6093C99.0296 78.7191 98.8195 78.8182 98.6059 78.9079C98.3911 78.9976 98.1739 79.0755 97.9521 79.1428C97.7302 79.2113 97.5048 79.2679 97.2782 79.3128C97.0504 79.3588 96.8214 79.393 96.5913 79.4166C96.3599 79.439 96.1286 79.4508 95.8973 79.4508ZM85.5691 57.803C85.2964 57.803 85.025 57.8302 84.7559 57.8833C84.488 57.9376 84.2272 58.0167 83.9746 58.1217C83.722 58.2268 83.4812 58.3554 83.2535 58.5076C83.0269 58.6611 82.8156 58.8334 82.622 59.0281C82.4285 59.2217 82.2562 59.4329 82.1039 59.6619C81.9517 59.8897 81.8242 60.1305 81.7192 60.3842C81.6141 60.638 81.535 60.9 81.4819 61.1691C81.4288 61.4382 81.4017 61.7108 81.4017 61.9846V72.3459C81.4017 72.6209 81.4288 72.8923 81.4819 73.1614C81.535 73.4305 81.6141 73.6925 81.7192 73.9463C81.8242 74.2 81.9517 74.4408 82.1039 74.6686C82.2562 74.8975 82.4285 75.1088 82.622 75.3023C82.8156 75.4971 83.0269 75.6706 83.2535 75.8228C83.4812 75.9751 83.722 76.1037 83.9746 76.2088C84.2272 76.3138 84.488 76.3929 84.7559 76.4472C85.025 76.5003 85.2964 76.5274 85.5691 76.5274H95.8973C96.1699 76.5262 96.4414 76.4991 96.7093 76.4448C96.9772 76.3917 97.238 76.3114 97.4906 76.2064C97.7432 76.1014 97.9827 75.9727 98.2105 75.8193C98.4371 75.667 98.6472 75.4935 98.8408 75.3C99.0343 75.1052 99.2078 74.8952 99.3589 74.6662C99.5111 74.4384 99.6398 74.1976 99.7448 73.9451C99.8499 73.6913 99.9289 73.4305 99.9832 73.1614C100.036 72.8923 100.063 72.6197 100.065 72.3459V61.9846C100.063 61.7108 100.036 61.4393 99.9832 61.1702C99.9289 60.9012 99.8499 60.6391 99.7448 60.3866C99.6398 60.1328 99.5111 59.8921 99.3589 59.6643C99.2078 59.4365 99.0343 59.2252 98.8408 59.0305C98.6472 58.8369 98.4371 58.6634 98.2105 58.5112C97.9827 58.3589 97.7432 58.2291 97.4906 58.1241C97.238 58.019 96.9772 57.9388 96.7093 57.8857C96.4414 57.8314 96.1699 57.8042 95.8973 57.803H85.5691Z" fill="white"/>
</g>
<mask id="mask4_3_410" style="mask-type:luminance" maskUnits="userSpaceOnUse" x="81" y="40" width="19" height="19">
<path d="M81.7533 40.4442H99.8816V58.222H81.7533V40.4442Z" fill="white"/>
</mask>
<g mask="url(#mask4_3_410)">
<path d="M83.3549 58.0179C83.2581 58.0179 83.1637 58.0084 83.0705 57.9895C82.9761 57.9707 82.8852 57.9435 82.7967 57.9069C82.7082 57.8703 82.6244 57.8243 82.5453 57.7712C82.465 57.7181 82.3919 57.6579 82.3234 57.5894C82.2561 57.5222 82.1959 57.4478 82.1428 57.3676C82.0897 57.2885 82.0449 57.2035 82.0083 57.115C81.9717 57.0265 81.9434 56.9356 81.9257 56.8412C81.9068 56.7468 81.8973 56.6523 81.8973 56.5556V48.242C81.8973 44.0498 85.7827 40.639 90.6405 40.639H90.8447C95.7025 40.639 99.589 44.0498 99.589 48.242C99.589 48.3376 99.5796 48.4332 99.5607 48.5264C99.5418 48.6209 99.5147 48.7129 99.4781 48.8014C99.4415 48.89 99.3966 48.9738 99.3435 49.054C99.2904 49.1343 99.229 49.2074 99.1618 49.2759C99.0945 49.3432 99.0201 49.4034 98.9411 49.4576C98.8608 49.5108 98.777 49.5556 98.6885 49.5922C98.6012 49.6288 98.5091 49.6571 98.4159 49.676C98.3214 49.6949 98.227 49.7031 98.1314 49.7031C98.0358 49.7031 97.9414 49.6949 97.847 49.676C97.7537 49.6571 97.6617 49.6288 97.5732 49.5922C97.4858 49.5556 97.4009 49.5108 97.3218 49.4576C97.2427 49.4034 97.1684 49.3432 97.1011 49.2759C97.0326 49.2074 96.9724 49.1343 96.9193 49.054C96.8662 48.9738 96.8214 48.89 96.7848 48.8014C96.7482 48.7129 96.721 48.6209 96.7022 48.5264C96.6833 48.4332 96.6738 48.3376 96.6738 48.242C96.6738 45.6585 94.0702 43.5636 90.8447 43.5636H90.6606C87.4444 43.5636 84.8314 45.6585 84.8314 48.242V56.5556C84.8314 56.6523 84.822 56.7479 84.8031 56.8435C84.7842 56.938 84.7559 57.03 84.7181 57.1197C84.6815 57.2094 84.6355 57.2944 84.5812 57.3746C84.5281 57.4549 84.4667 57.5281 84.3971 57.5965C84.3286 57.665 84.2543 57.7252 84.1728 57.7783C84.0926 57.8314 84.0076 57.8762 83.9179 57.9116C83.8282 57.9482 83.7361 57.9754 83.6417 57.9931C83.5461 58.0108 83.4505 58.019 83.3549 58.0179Z" fill="white"/>
</g>
<path d="M90.7385 70.4646C90.6429 70.4646 90.5473 70.4552 90.4541 70.4363C90.3597 70.4174 90.2688 70.3903 90.1803 70.3537C90.0918 70.3171 90.008 70.2722 89.9289 70.2179C89.8486 70.1648 89.7755 70.1046 89.7082 70.0362C89.6397 69.9689 89.5795 69.8946 89.5264 69.8155C89.4733 69.7352 89.4285 69.6514 89.3919 69.5617C89.3553 69.4732 89.327 69.3823 89.3093 69.2879C89.2904 69.1935 89.2809 69.0991 89.2809 69.0023V65.006C89.2809 64.9104 89.2904 64.8149 89.3093 64.7216C89.327 64.6272 89.3553 64.5351 89.3919 64.4466C89.4285 64.3581 89.4733 64.2743 89.5264 64.194C89.5795 64.1138 89.6397 64.0406 89.7082 63.9722C89.7755 63.9049 89.8486 63.8447 89.9289 63.7904C90.008 63.7373 90.0918 63.6925 90.1803 63.6559C90.2688 63.6193 90.3597 63.591 90.4541 63.5721C90.5473 63.5544 90.6429 63.5449 90.7385 63.5449C90.8341 63.5449 90.9285 63.5544 91.023 63.5721C91.1162 63.591 91.2071 63.6193 91.2956 63.6559C91.3841 63.6925 91.4679 63.7373 91.5482 63.7904C91.6272 63.8447 91.7004 63.9049 91.7689 63.9722C91.8361 64.0406 91.8963 64.1138 91.9494 64.194C92.0026 64.2743 92.0474 64.3581 92.084 64.4466C92.1206 64.5351 92.1489 64.6272 92.1678 64.7216C92.1855 64.8149 92.1949 64.9104 92.1949 65.006V69.0023C92.1949 69.0991 92.1855 69.1935 92.1678 69.2879C92.1489 69.3823 92.1206 69.4732 92.084 69.5617C92.0474 69.6514 92.0026 69.7352 91.9494 69.8155C91.8963 69.8946 91.8361 69.9689 91.7689 70.0362C91.7004 70.1046 91.6272 70.1648 91.5482 70.2179C91.4679 70.2722 91.3841 70.3171 91.2956 70.3537C91.2071 70.3903 91.1162 70.4174 91.023 70.4363C90.9285 70.4552 90.8341 70.4646 90.7385 70.4646Z" fill="white"/>
</svg>
